<svg width="30" height="30" viewBox="0 0 30 30" fill="none" xmlns="http://www.w3.org/2000/svg">
<path d="M7.81658 2.39323C8.7563 2.60457 9.44832 2.9337 9.97157 3.31439C12.2715 2.67609 14.9363 2.41912 17.454 2.66613C14.8989 -0.219888 11.3508 -0.570697 7.71454 0.697757C6.83965 1.00294 6.95493 2.21949 7.81658 2.39323Z" fill="#6598E3"/>
<path d="M4.08521 18.2647C5.831 16.7411 7.8204 16.3926 9.99824 17.2289C12.0211 18.0307 15.3293 18.9777 18.346 19.4638C18.1285 19.1216 18.1266 19.1194 18.1118 19.0938C17.298 17.6795 15.5135 14.009 16.5134 10.4824C17.1027 8.40414 18.5423 6.7321 20.7924 5.51261C20.8108 5.5023 20.8074 5.50418 21.1726 5.30438C18.427 4.26554 15.3072 4.11524 12.4231 4.57927C9.81302 4.9968 8.45167 5.65525 7.17326 6.50014C0.957571 10.6032 -0.818909 16.167 0.326712 20.8372C0.326829 20.8377 0.327005 20.8381 0.327122 20.8386C1.66997 26.3073 7.28426 29.7315 7.5226 29.8746C7.65645 29.955 7.81009 29.9999 7.98224 29.9999C8.22844 29.9999 9.77425 29.9479 10.8472 28.684C11.7956 27.5671 12.0655 25.9043 11.6493 23.742C11.5438 23.1937 10.9519 22.8765 10.4318 23.1042C10.4173 23.1105 8.95928 23.7389 7.18128 23.6722C5.04521 23.5918 3.36585 22.5633 2.18344 20.6133C2.48838 20.0831 3.1278 19.1003 4.08521 18.2647Z" fill="#6598E3"/>
<path d="M29.9886 17.6792C29.2157 12.6435 27.011 8.51402 23.1289 6.23724C21.0814 7.35762 21.7877 6.97143 21.6348 7.05484C19.814 8.04043 18.6598 9.35493 18.2042 10.9618C17.3905 13.8317 18.9188 16.9679 19.6257 18.201L20.6116 19.7518C23.5492 20.0197 26.5973 19.8579 29.1722 18.7553C29.4785 18.6241 29.6965 18.5476 29.8614 18.2891C29.9771 18.1077 30.0221 17.8914 29.9886 17.6792ZM23.4463 13.0717C22.9394 13.0717 22.5603 12.6669 22.5603 12.193C22.5603 11.7184 22.9401 11.3144 23.4463 11.3144C23.9316 11.3144 24.325 11.7078 24.325 12.193C24.325 12.6783 23.9316 13.0717 23.4463 13.0717Z" fill="#6598E3"/>
</svg>
